<?xml version="1.0" encoding="UTF-8"?>
<!DOCTYPE svg PUBLIC "-//W3C//DTD SVG 1.1//EN" "http://www.w3.org/Graphics/SVG/1.1/DTD/svg11.dtd">
<svg xmlns="http://www.w3.org/2000/svg" version="1.1" width="290px" height="307px" style="shape-rendering:geometricPrecision; text-rendering:geometricPrecision; image-rendering:optimizeQuality; fill-rule:evenodd; clip-rule:evenodd" xmlns:xlink="http://www.w3.org/1999/xlink">
<g><path style="opacity:1" fill="#4a322d" d="M 205.5,57.5 C 208.652,74.0537 209.318,90.7204 207.5,107.5C 204.95,107.439 203.45,106.106 203,103.5C 202.69,92.6804 200.357,82.347 196,72.5C 189.265,65.2209 182.431,58.0542 175.5,51C 153.884,52.1327 132.217,52.7994 110.5,53C 93.8494,66.802 85.0161,84.6353 84,106.5C 83.3292,107.252 82.4959,107.586 81.5,107.5C 78.6476,90.7273 79.3143,74.0606 83.5,57.5C 88.8918,44.27 98.2252,34.77 111.5,29C 129.891,25.3473 148.225,21.514 166.5,17.5C 166.238,18.9778 166.571,20.3112 167.5,21.5C 169.618,20.0541 171.951,19.3874 174.5,19.5C 174.5,20.8333 174.5,22.1667 174.5,23.5C 177.067,23.1455 179.567,22.4788 182,21.5C 182.772,21.6448 183.439,21.9781 184,22.5C 184.07,25.5928 183.736,28.5928 183,31.5C 193.924,37.2538 201.424,45.9205 205.5,57.5 Z"/></g>
<g><path style="opacity:1" fill="#ecb889" d="M 207.5,107.5 C 211.382,108.548 214.215,110.881 216,114.5C 216.667,123.167 216.667,131.833 216,140.5C 213.847,144.654 210.514,147.32 206,148.5C 202.443,170.99 190.609,187.324 170.5,197.5C 153.33,205.154 135.997,205.487 118.5,198.5C 98.4717,187.805 86.805,171.138 83.5,148.5C 78.7421,147.586 75.2421,144.919 73,140.5C 72.3333,131.833 72.3333,123.167 73,114.5C 74.8048,110.857 77.6381,108.524 81.5,107.5C 82.4959,107.586 83.3292,107.252 84,106.5C 85.0161,84.6353 93.8494,66.802 110.5,53C 132.217,52.7994 153.884,52.1327 175.5,51C 182.431,58.0542 189.265,65.2209 196,72.5C 200.357,82.347 202.69,92.6804 203,103.5C 203.45,106.106 204.95,107.439 207.5,107.5 Z"/></g>
<g><path style="opacity:0" fill="#66c9fe" d="M 83.5,57.5 C 79.3143,74.0606 78.6476,90.7273 81.5,107.5C 77.6381,108.524 74.8048,110.857 73,114.5C 72.3333,123.167 72.3333,131.833 73,140.5C 75.2421,144.919 78.7421,147.586 83.5,148.5C 86.805,171.138 98.4717,187.805 118.5,198.5C 118.5,199.167 118.5,199.833 118.5,200.5C 105.761,200.243 94.9276,204.576 86,213.5C 84.1539,216.569 83.1539,219.902 83,223.5C 65.4535,231.215 52.2868,243.548 43.5,260.5C 17.9943,230.174 7.82764,195.174 13,155.5C 20.9364,111.431 44.4364,78.7644 83.5,57.5 Z"/></g>
<g><path style="opacity:0" fill="#65c8fe" d="M 205.5,57.5 C 208.032,58.5957 210.365,59.9291 212.5,61.5C 211.226,62.1894 211.226,63.0228 212.5,64C 248.266,86.7037 268.766,118.87 274,160.5C 277.349,195.936 268.183,227.769 246.5,256C 245.256,256.456 244.423,255.956 244,254.5C 243.601,254.728 243.435,255.062 243.5,255.5C 233.784,241.703 221.284,231.036 206,223.5C 204.95,214.442 200.117,208.275 191.5,205C 184.611,202.922 177.611,201.422 170.5,200.5C 170.5,199.5 170.5,198.5 170.5,197.5C 190.609,187.324 202.443,170.99 206,148.5C 210.514,147.32 213.847,144.654 216,140.5C 216.667,131.833 216.667,123.167 216,114.5C 214.215,110.881 211.382,108.548 207.5,107.5C 209.318,90.7204 208.652,74.0537 205.5,57.5 Z"/></g>
<g><path style="opacity:0" fill="#7dd1fa" d="M 212.5,61.5 C 256.525,89.5375 278.025,129.871 277,182.5C 275.019,212.103 264.519,238.103 245.5,260.5C 244.559,258.95 243.893,257.284 243.5,255.5C 243.435,255.062 243.601,254.728 244,254.5C 244.423,255.956 245.256,256.456 246.5,256C 268.183,227.769 277.349,195.936 274,160.5C 268.766,118.87 248.266,86.7037 212.5,64C 211.226,63.0228 211.226,62.1894 212.5,61.5 Z"/></g>
<g><path style="opacity:1" fill="#614b38" d="M 106.5,96.5 C 113.01,96.0698 119.344,96.9031 125.5,99C 126.5,99.8333 127.5,100.667 128.5,101.5C 122.193,102.331 115.859,102.831 109.5,103C 104.885,103.817 100.551,105.317 96.5,107.5C 95.4173,106.635 95.2506,105.635 96,104.5C 98.9753,100.952 102.475,98.2858 106.5,96.5 Z"/></g>
<g><path style="opacity:1" fill="#614b38" d="M 170.5,96.5 C 177.221,95.7513 183.554,96.9179 189.5,100C 191.557,101.719 193.224,103.719 194.5,106C 194.167,106.5 193.833,107 193.5,107.5C 183.199,103.765 172.532,101.932 161.5,102C 163.975,99.1051 166.975,97.2718 170.5,96.5 Z"/></g>
<g><path style="opacity:1" fill="#644e3a" d="M 108.5,115.5 C 112.747,115.178 116.747,116.011 120.5,118C 122.227,119.389 123.561,121.056 124.5,123C 124.167,123.5 123.833,124 123.5,124.5C 116.128,119.174 108.795,119.174 101.5,124.5C 100.592,123.21 100.759,121.877 102,120.5C 104.326,118.934 106.492,117.268 108.5,115.5 Z"/></g>
<g><path style="opacity:1" fill="#654e3a" d="M 172.5,115.5 C 177.377,114.812 181.71,115.979 185.5,119C 187.563,120.572 188.229,122.405 187.5,124.5C 180.099,119.216 172.766,119.216 165.5,124.5C 164.417,123.635 164.251,122.635 165,121.5C 167.114,118.879 169.614,116.879 172.5,115.5 Z"/></g>
<g><path style="opacity:1" fill="#c79b74" d="M 131.5,142.5 C 140.192,142.169 148.859,142.502 157.5,143.5C 154.789,148.691 150.455,151.024 144.5,150.5C 137.991,151.09 133.658,148.424 131.5,142.5 Z"/></g>
<g><path style="opacity:1" fill="#48382a" d="M 128.5,160.5 C 128.393,162.903 129.393,164.736 131.5,166C 140.5,166.667 149.5,166.667 158.5,166C 160.607,164.736 161.607,162.903 161.5,160.5C 162.5,160.5 163.5,160.5 164.5,160.5C 164.963,166.563 162.963,171.563 158.5,175.5C 155.727,173.909 152.727,172.909 149.5,172.5C 144.524,173.14 139.524,173.307 134.5,173C 133.307,174.095 131.973,174.928 130.5,175.5C 125.785,171.707 123.785,166.707 124.5,160.5C 125.833,160.5 127.167,160.5 128.5,160.5 Z"/></g>
<g><path style="opacity:1" fill="#f4f1ee" d="M 128.5,160.5 C 139.5,160.5 150.5,160.5 161.5,160.5C 161.607,162.903 160.607,164.736 158.5,166C 149.5,166.667 140.5,166.667 131.5,166C 129.393,164.736 128.393,162.903 128.5,160.5 Z"/></g>
<g><path style="opacity:1" fill="#f4506a" d="M 158.5,175.5 C 153.08,181.149 146.414,182.982 138.5,181C 135.244,179.884 132.578,178.051 130.5,175.5C 131.973,174.928 133.307,174.095 134.5,173C 139.524,173.307 144.524,173.14 149.5,172.5C 152.727,172.909 155.727,173.909 158.5,175.5 Z"/></g>
<g><path style="opacity:1" fill="#d6a67c" d="M 170.5,197.5 C 170.5,198.5 170.5,199.5 170.5,200.5C 170.5,202.5 170.5,204.5 170.5,206.5C 153.203,214.496 135.87,214.496 118.5,206.5C 118.5,204.5 118.5,202.5 118.5,200.5C 118.5,199.833 118.5,199.167 118.5,198.5C 135.997,205.487 153.33,205.154 170.5,197.5 Z"/></g>
<g><path style="opacity:1" fill="#262e34" d="M 118.5,200.5 C 118.5,202.5 118.5,204.5 118.5,206.5C 118.334,213.175 118.5,219.842 119,226.5C 125.907,245.539 138.74,251.372 157.5,244C 164.377,240.12 168.543,234.287 170,226.5C 170.5,219.842 170.666,213.175 170.5,206.5C 170.5,204.5 170.5,202.5 170.5,200.5C 177.611,201.422 184.611,202.922 191.5,205C 200.117,208.275 204.95,214.442 206,223.5C 221.284,231.036 233.784,241.703 243.5,255.5C 243.893,257.284 244.559,258.95 245.5,260.5C 223.99,285.424 196.99,300.757 164.5,306.5C 151.167,306.5 137.833,306.5 124.5,306.5C 120.368,305.137 116.035,304.137 111.5,303.5C 111.5,302.5 111.5,301.5 111.5,300.5C 111.667,284.83 111.5,269.163 111,253.5C 108.75,252.292 106.583,250.959 104.5,249.5C 103.501,266.487 103.167,283.487 103.5,300.5C 79.4844,293.144 59.4844,279.811 43.5,260.5C 52.2868,243.548 65.4535,231.215 83,223.5C 83.1539,219.902 84.1539,216.569 86,213.5C 94.9276,204.576 105.761,200.243 118.5,200.5 Z"/></g>
<g><path style="opacity:1" fill="#ecb889" d="M 118.5,206.5 C 135.87,214.496 153.203,214.496 170.5,206.5C 170.666,213.175 170.5,219.842 170,226.5C 168.543,234.287 164.377,240.12 157.5,244C 138.74,251.372 125.907,245.539 119,226.5C 118.5,219.842 118.334,213.175 118.5,206.5 Z"/></g>
<g><path style="opacity:1" fill="#f5f6f6" d="M 111.5,300.5 C 111.5,301.5 111.5,302.5 111.5,303.5C 108.646,302.795 105.979,301.795 103.5,300.5C 104.331,285.005 104.831,269.339 105,253.5C 106.441,254.26 107.941,254.926 109.5,255.5C 110.167,270.661 110.833,285.661 111.5,300.5 Z"/></g>
<g><path style="opacity:1" fill="#f3f3f3" d="M 178.5,253.5 C 180.339,254.752 182.172,254.752 184,253.5C 184.5,267.496 184.667,281.496 184.5,295.5C 182.46,298.134 180.293,298.134 178,295.5C 177.173,281.327 177.339,267.327 178.5,253.5 Z"/></g>
<g><path style="opacity:1" fill="#abadaf" d="M 184.5,295.5 C 184.667,281.496 184.5,267.496 184,253.5C 182.172,254.752 180.339,254.752 178.5,253.5C 180.435,252.19 182.435,250.857 184.5,249.5C 185.826,264.995 185.826,280.328 184.5,295.5 Z"/></g>
<g><path style="opacity:1" fill="#cdcecf" d="M 111.5,300.5 C 110.833,285.661 110.167,270.661 109.5,255.5C 107.941,254.926 106.441,254.26 105,253.5C 104.831,269.339 104.331,285.005 103.5,300.5C 103.167,283.487 103.501,266.487 104.5,249.5C 106.583,250.959 108.75,252.292 111,253.5C 111.5,269.163 111.667,284.83 111.5,300.5 Z"/></g>
</svg>
