<svg xmlns="http://www.w3.org/2000/svg" width="500" height="138" viewBox="0 0 500 138" version="1.1"><path d="M 127.416 24.917 C 127.187 25.146, 127 46.892, 127 73.242 L 127 121.152 152.250 120.792 C 175.989 120.454, 177.856 120.291, 183.449 118.070 C 194.679 113.610, 202.203 104.135, 205.528 90.267 C 207.715 81.146, 207.111 59.553, 204.430 51 C 200.411 38.178, 191.647 29.598, 179.500 26.593 C 175.320 25.559, 166.572 25.017, 150.666 24.805 C 138.107 24.637, 127.645 24.688, 127.416 24.917 M 375.509 24.989 C 370.510 25.415, 369.462 25.831, 369.181 27.500 C 368.996 28.600, 366.658 38.500, 363.987 49.500 C 361.315 60.500, 356.852 79.175, 354.069 91 C 351.286 102.825, 348.557 114.127, 348.005 116.116 C 345.866 123.814, 346.117 124.124, 354.229 123.794 L 361.458 123.500 363.240 116 C 364.220 111.875, 367.239 98.600, 369.949 86.500 C 372.658 74.400, 376.928 56.216, 379.438 46.091 C 381.947 35.967, 384 27.127, 384 26.448 C 384 24.695, 382.327 24.408, 375.509 24.989 M 260 71.925 C 260 97.816, 259.999 119.338, 259.999 119.750 C 259.997 120.942, 303.897 121.163, 309.496 120 C 321.948 117.412, 329.893 111.144, 335.485 99.500 C 340.020 90.054, 341.406 82.172, 340.725 69.695 C 339.528 47.768, 330.759 32.809, 315.805 27.185 C 312.355 25.887, 306.388 25.495, 285.750 25.208 L 260 24.851 260 71.925 M 93.435 44.358 C 84.600 48.286, 70.296 54.592, 61.648 58.370 L 45.926 65.240 46.213 73.716 L 46.500 82.192 68 91.450 C 79.825 96.542, 94.212 102.799, 99.972 105.354 C 105.731 107.909, 110.793 110, 111.222 110 C 111.650 110, 112 105.767, 112 100.594 L 112 91.187 97.250 85.458 C 74.060 76.452, 67.854 73.739, 68.707 72.984 C 69.597 72.197, 85.129 66, 101 60.102 L 111.500 56.199 111.500 46.933 C 111.500 41.572, 111.079 37.572, 110.500 37.441 C 109.950 37.317, 102.271 40.430, 93.435 44.358 M 389.769 37.750 C 389.577 38.163, 389.663 42.492, 389.960 47.372 L 390.500 56.244 395.500 58.151 C 417.563 66.564, 433.938 73.449, 433.284 74.038 C 432.853 74.426, 427.663 76.601, 421.750 78.872 C 415.837 81.142, 406.275 84.834, 400.500 87.076 L 390 91.152 390 100.576 C 390 106.433, 390.394 110, 391.040 110 C 391.612 110, 393.765 109.140, 395.826 108.089 C 397.886 107.038, 411.030 101.238, 425.036 95.200 C 439.041 89.163, 451.738 83.651, 453.250 82.951 C 455.924 81.714, 456 81.452, 456 73.453 L 456 65.226 437.250 57.174 C 426.938 52.745, 412.437 46.394, 405.028 43.061 C 390.996 36.748, 390.341 36.520, 389.769 37.750 M 147.028 73 L 147.107 104 158.304 103.994 C 171.655 103.988, 176.104 102.920, 180.071 98.768 C 184.596 94.033, 186.372 86.560, 186.313 72.500 C 186.271 62.647, 185.870 59.478, 184.075 54.792 C 180.141 44.525, 174.968 42.015, 157.725 42.006 L 146.950 42 147.028 73 M 280.778 73.093 L 280.500 104.185 293.500 103.817 C 303.320 103.538, 307.276 103.030, 309.671 101.739 C 317.236 97.662, 320.515 87.469, 319.713 70.519 C 319.069 56.912, 317.803 52.568, 313.118 47.882 C 308.452 43.216, 303.978 42.013, 291.278 42.006 L 281.056 42 280.778 73.093 M 223 111.500 L 223 121.072 232.750 120.786 L 242.500 120.500 242.500 111.500 L 242.500 102.500 232.750 102.214 L 223 101.928 223 111.500" stroke="none" fill="#058484" fill-rule="evenodd"/></svg>